<svg version="1.1" id="Layer_1" xmlns="http://www.w3.org/2000/svg" xmlns:xlink="http://www.w3.org/1999/xlink" x="0px" y="0px"
	 width="100%" viewBox="0 0 666 233" enable-background="new 0 0 666 233" xml:space="preserve">
<path fill="#FAFAFA" opacity="1.000000" stroke="none" 
	d="
M439.000000,234.000000 
	C292.707184,234.000000 146.914383,234.000000 1.060786,234.000000 
	C1.060786,156.395477 1.060786,78.790901 1.060786,1.093158 
	C222.876160,1.093158 444.752380,1.093158 666.814331,1.093158 
	C666.814331,78.666313 666.814331,156.333115 666.814331,234.000000 
	C591.124207,234.000000 515.312073,234.000000 439.000000,234.000000 
M568.791504,100.741646 
	C568.697754,100.420654 568.502258,100.183517 567.973877,99.257248 
	C567.798340,98.196587 567.622742,97.135918 568.317871,96.045715 
	C570.217712,95.696678 572.117493,95.347641 574.313049,95.747452 
	C574.574280,97.043152 574.838989,98.338165 575.096252,99.634659 
	C576.327759,105.841354 577.344238,112.104179 578.942444,118.214897 
	C579.326111,119.681694 581.534668,121.373848 583.100952,121.600510 
	C584.297302,121.773636 586.626648,120.057442 587.044739,118.736336 
	C590.624756,107.422897 593.883667,96.007874 597.822021,84.250259 
	C598.357910,83.317535 598.893799,82.384811 599.654114,81.061409 
	C600.901611,84.173286 602.192078,86.723373 602.947388,89.423164 
	C604.292969,94.233154 607.347229,96.008789 612.183350,95.869362 
	C618.835083,95.677582 625.497192,95.798111 632.154358,95.851608 
	C643.201172,95.940384 651.054443,90.852211 656.607056,80.783775 
	C656.588440,80.243019 656.569763,79.702263 656.551086,79.161522 
	C656.063477,79.459404 655.575867,79.757286 654.505859,80.404900 
	C650.172180,84.447914 645.148865,86.417702 639.118347,86.229416 
	C631.478394,85.990868 623.816711,85.918854 616.183167,86.232666 
	C612.434448,86.386780 610.921082,84.839592 609.817993,81.587242 
	C607.792664,75.615471 605.611145,69.673538 603.028809,63.928612 
	C602.299194,62.305607 599.927002,60.424141 598.352417,60.462830 
	C596.828491,60.500271 594.567261,62.589836 594.011353,64.242729 
	C591.952881,70.362785 590.465210,76.674843 588.312500,83.472313 
	C587.100952,87.412689 585.889404,91.353073 584.431824,96.093536 
	C583.856567,93.635994 583.418579,92.036743 583.111572,90.412735 
	C578.289185,64.907829 573.495422,39.397511 568.658752,13.895316 
	C568.087097,10.881048 567.360168,7.802925 563.312134,7.857821 
	C559.329712,7.911826 558.611145,10.872952 558.034241,13.957935 
	C555.341675,28.356293 552.640991,42.753162 549.915833,57.145390 
	C547.873779,67.930145 545.790039,78.707016 543.458252,90.878937 
	C542.508850,88.738754 542.132385,88.038719 541.879333,87.296608 
	C539.301697,79.737152 536.904724,72.109642 534.060608,64.652412 
	C533.404968,62.933216 531.317200,60.799831 529.740295,60.671043 
	C528.257690,60.549953 525.821350,62.493866 525.118164,64.103172 
	C522.059143,71.104568 519.479553,78.315491 515.903320,85.850151 
	C508.601349,85.987663 501.298889,86.105202 493.997620,86.272774 
	C491.184357,86.337334 488.209656,86.003876 485.623077,86.833054 
	C484.057617,87.334885 481.921509,89.927376 482.148743,91.206215 
	C482.457520,92.944191 484.758026,95.624512 486.243286,95.650200 
	C497.176422,95.839355 508.119293,95.467567 519.825317,95.332558 
	C521.327637,93.984268 523.288025,92.895996 524.232849,91.231339 
	C525.974915,88.162071 527.120605,84.754364 528.928772,80.517662 
	C530.873352,85.900818 532.505371,90.371254 534.103088,94.853943 
	C536.108887,100.481438 537.831604,106.230843 540.225586,111.686707 
	C540.983398,113.413734 543.408447,115.160980 545.248840,115.376617 
	C546.336548,115.504059 548.359436,112.840912 548.929443,111.095497 
	C550.054260,107.651695 550.443481,103.969849 551.168030,100.392738 
	C553.829956,87.249657 556.504517,74.109161 559.595520,60.556313 
	C559.673157,60.174793 559.750793,59.793274 559.654358,58.651253 
	C560.144043,56.093208 560.633728,53.535164 561.563354,50.563717 
	C561.646423,50.174118 561.729553,49.784523 561.595398,48.725204 
	C561.766357,47.809975 561.937317,46.894745 562.552490,45.564320 
	C562.635132,45.172157 562.717773,44.779999 562.557495,43.715263 
	C562.738098,42.994591 562.918701,42.273922 563.099243,41.553253 
	C563.425415,41.539047 563.751526,41.524837 564.077637,41.510632 
	C565.355286,48.338856 566.632874,55.167084 567.097778,62.001389 
	C563.711914,61.754364 562.672424,63.688370 563.021362,66.625107 
	C563.976746,74.665833 565.027161,82.695267 565.226440,90.770332 
	C563.894836,92.060722 561.765259,93.141106 561.361389,94.675682 
	C558.791504,104.439476 556.773926,114.347824 554.246216,124.123703 
	C550.712646,137.789886 546.892090,151.381866 542.856567,165.699051 
	C541.348206,172.102615 539.325562,178.436111 538.441406,184.924728 
	C536.740173,197.410339 547.432251,206.685394 558.498657,203.422394 
	C558.885010,196.815979 559.259766,190.407593 559.903625,183.240555 
	C564.332764,166.369263 568.826599,149.514374 573.114807,132.607346 
	C573.694702,130.320999 573.551270,127.727753 573.204590,125.355286 
	C572.460449,120.264076 571.364868,115.224236 571.224731,109.849319 
	C572.009827,106.871613 572.794983,103.893898 573.815796,100.022354 
	C571.165955,100.678696 569.921692,100.986893 568.695190,101.201248 
	C568.695190,101.201248 568.789673,101.215363 568.791504,100.741646 
M459.115692,140.819992 
	C456.427368,140.829880 453.739014,140.839767 450.978424,140.081833 
	C453.893372,130.464020 456.656250,120.796402 459.783661,111.248184 
	C461.495544,106.021751 461.152649,101.919563 454.992310,99.470818 
	C456.411865,99.128914 457.204010,98.938133 458.900421,98.905891 
	C469.771118,99.006264 469.775238,99.007141 471.653900,90.192551 
	C471.711670,89.921562 471.485077,89.589958 471.299530,88.991203 
	C466.593719,88.991203 461.796875,88.991203 456.081268,88.835213 
	C451.720490,88.901649 447.359711,88.968086 442.138092,88.904633 
	C429.346649,89.487846 420.018311,96.471039 420.237946,105.415565 
	C421.941467,104.326447 423.519958,103.113007 425.272247,102.254120 
	C427.041595,101.386856 428.937164,100.661293 430.857788,100.239380 
	C437.601868,98.757904 440.013947,101.011078 438.921692,107.597145 
	C438.733154,108.733986 438.486298,109.861168 437.971741,111.664192 
	C437.569489,113.069214 437.167206,114.474236 436.203186,116.366669 
	C434.047485,123.870956 431.891785,131.375244 429.183960,139.362061 
	C428.107513,142.990433 427.048920,146.624207 425.951233,150.246124 
	C422.831299,160.540390 419.118713,170.697922 416.726532,181.157883 
	C414.288910,191.816559 419.789246,199.593109 431.035980,202.827591 
	C434.358307,203.184128 437.680634,203.540665 441.904114,204.076691 
	C445.269958,204.046326 448.635773,204.015945 452.917664,204.158401 
	C457.277679,204.082443 461.637726,204.006485 466.889740,204.074310 
	C470.275787,203.755219 473.661804,203.436127 477.873260,203.171692 
	C480.916351,202.418655 483.959442,201.665634 487.726898,200.893234 
	C498.795898,196.565140 502.637787,190.218246 499.843262,181.623611 
	C494.940613,184.382034 489.966492,187.180679 484.198242,189.989120 
	C481.132843,190.728745 478.067444,191.468369 474.166565,192.139648 
	C471.097076,192.556702 468.027557,192.973755 464.063385,193.249985 
	C460.375519,193.503815 456.687653,193.757660 452.209259,193.993454 
	C448.803711,192.740189 445.398193,191.486908 441.561249,189.621384 
	C438.384003,185.771866 438.419525,181.334534 439.496460,176.859085 
	C440.929688,170.902878 442.618896,165.008255 444.662598,158.549957 
	C446.185913,155.830490 445.141663,151.310593 450.908325,151.091751 
	C454.272827,151.051453 457.637360,151.011154 461.877594,151.139267 
	C464.253448,151.095642 466.629333,151.052017 469.785889,151.257935 
	C471.924225,151.384644 474.060974,151.556564 476.201141,151.630478 
	C487.103210,152.006958 487.104095,151.998154 488.692444,140.977432 
	C488.714752,140.822739 488.639343,140.653961 488.479034,139.782089 
	C482.390564,140.169708 476.196167,140.564087 469.102722,140.809891 
	C466.068420,140.869003 463.034119,140.928116 459.115692,140.819992 
M359.322266,140.455017 
	C356.554901,140.514816 353.787567,140.574631 350.413025,140.433197 
	C349.782166,140.509064 349.151337,140.584930 348.280579,140.260727 
	C348.280579,140.260727 347.888275,140.008331 348.133820,139.352386 
	C348.406799,138.232559 348.679810,137.112747 349.380432,135.401566 
	C351.721436,127.769081 354.040558,120.129791 356.411377,112.506584 
	C357.906677,107.698654 359.604919,102.893295 353.129883,99.443359 
	C354.737030,98.999420 355.365570,98.825806 356.900360,98.838387 
	C360.596344,98.794716 364.292328,98.751038 368.880920,98.896141 
	C371.917206,98.898071 374.953522,98.900002 378.849060,99.106842 
	C383.238495,99.375717 387.627899,99.644600 392.743408,100.239143 
	C397.342285,100.690475 401.941193,101.141808 406.867859,101.625305 
	C407.966156,97.150215 408.972473,93.049965 410.048309,88.666489 
	C403.853302,88.666489 398.403748,88.666489 392.054810,88.434929 
	C387.700073,88.531944 383.345367,88.628952 378.113129,88.461945 
	C375.061646,88.553482 372.010162,88.645012 368.172058,88.469765 
	C364.113647,88.593857 360.055206,88.717941 355.103699,88.656090 
	C352.069122,88.737007 349.034576,88.817932 345.110168,88.728065 
	C342.402069,88.850525 339.693939,88.972984 336.177795,88.999207 
	C324.897369,90.523109 317.976135,96.407120 316.896515,104.317177 
	C321.346191,102.924988 326.198334,101.118126 331.199982,99.953728 
	C334.056458,99.288734 336.403595,100.713921 336.645844,104.717484 
	C335.681061,108.441353 334.716278,112.165222 333.170776,116.341942 
	C332.014099,120.512825 330.857422,124.683708 329.141418,129.340622 
	C327.408508,135.218857 325.675598,141.097076 323.491608,147.544937 
	C320.212433,157.936157 316.503235,168.215347 313.759308,178.746033 
	C310.047150,192.992676 316.255646,201.561935 331.598236,203.826950 
	C333.398010,203.867554 335.197754,203.908142 337.906128,204.149811 
	C341.937439,204.100845 345.968750,204.051880 350.904297,204.198517 
	C354.601837,204.125275 358.299408,204.052032 362.912872,204.156540 
	C367.603241,203.754974 372.293640,203.353409 377.782349,203.026459 
	C381.961945,201.520828 386.430939,200.532974 390.256775,198.394440 
	C396.844147,194.712357 399.095490,188.057220 396.897125,179.744400 
	C390.751404,187.138824 382.550903,189.968765 373.145660,192.014374 
	C369.442200,192.481934 365.738708,192.949478 361.118500,193.316406 
	C357.438049,193.470932 353.757568,193.625458 349.394562,193.467316 
	C346.258972,192.698288 343.123383,191.929276 339.362274,190.727127 
	C335.337982,187.597824 335.277496,183.261383 336.031036,178.870468 
	C336.663696,175.184067 337.749573,171.575455 338.961609,167.238632 
	C340.683228,161.907257 342.404846,156.575882 344.999542,151.091156 
	C347.663513,150.998886 350.327515,150.906616 353.876923,150.997742 
	C356.579590,150.950073 359.282257,150.902420 362.870148,151.039261 
	C365.575439,151.004776 368.280701,150.970276 371.786407,151.137863 
	C374.740356,151.363586 377.694824,151.743332 380.647980,151.733597 
	C381.717773,151.730042 383.475067,151.023376 383.732910,150.244888 
	C384.841858,146.896179 385.509949,143.401505 386.484528,139.354080 
	C381.132324,139.786774 376.596741,140.153442 371.139435,140.386826 
	C367.433563,140.493378 363.727722,140.599930 359.322266,140.455017 
M252.446121,130.413849 
	C246.211472,140.574097 240.002609,150.750381 233.708542,160.873657 
	C232.945786,162.100479 231.723267,163.041428 230.794312,163.261414 
	C230.166168,157.815094 229.598801,152.360947 228.898117,146.923965 
	C227.010788,132.279175 225.066650,117.641708 223.247223,102.104935 
	C222.725327,97.865822 222.203430,93.626709 221.655991,89.180176 
	C212.138611,89.180176 203.095093,89.180176 193.451889,89.180176 
	C197.995972,95.621063 196.023911,102.071541 194.470520,108.516266 
	C193.307343,113.342079 192.160736,118.171883 190.534210,123.565918 
	C188.360443,130.856125 186.300690,138.182678 183.990692,145.429474 
	C177.992599,164.246399 170.084946,182.121490 157.009674,197.226639 
	C150.563309,204.673752 142.948959,209.990433 131.797836,208.366913 
	C133.826553,211.194794 135.897568,213.984039 138.648178,215.653839 
	C146.555893,220.454330 156.702209,219.543747 163.855988,212.175766 
	C169.665161,206.192627 175.029648,199.245102 178.635605,191.780518 
	C184.024719,180.624634 187.696396,168.639099 192.826279,157.025757 
	C194.150085,157.987717 195.473892,158.949692 196.784653,159.902176 
	C200.571472,157.562607 204.261002,155.283142 208.219757,153.772964 
	C208.758102,156.874222 209.296448,159.975464 209.735138,163.966660 
	C211.093826,175.495712 212.452530,187.024765 213.795441,198.419891 
	C224.076920,199.498917 224.080917,199.500931 228.370392,190.993744 
	C228.664536,190.410339 228.833801,189.763992 229.618271,188.746994 
	C237.704987,174.814682 245.791718,160.882385 254.705353,146.998474 
	C256.948517,147.485687 259.191711,147.972900 260.712219,148.303162 
	C262.626343,152.212769 264.288727,155.608200 266.035156,159.839737 
	C265.731720,162.559631 265.428284,165.279526 264.949249,168.834839 
	C264.765106,170.484756 264.353912,172.145813 264.434235,173.782761 
	C264.902802,183.332413 263.962250,193.283829 266.379761,202.329254 
	C270.249207,216.807114 290.467041,221.239334 300.911133,210.430511 
	C290.334839,209.768097 286.714966,202.866348 285.469391,193.860016 
	C285.196869,191.889603 284.951172,189.915466 284.855499,187.077133 
	C284.826660,184.727325 284.797821,182.377533 284.957458,179.184784 
	C284.979828,177.461105 285.002228,175.737411 285.338715,173.277374 
	C288.176208,144.828827 293.955231,116.926903 301.550629,88.845039 
	C296.648865,89.072006 292.352722,89.270927 287.165741,89.371445 
	C280.627777,89.038223 276.316223,92.169151 273.472778,97.886826 
	C272.233673,100.378418 270.550385,102.649117 268.533936,105.437347 
	C263.351013,113.627022 258.168091,121.816696 252.446121,130.413849 
M157.418671,95.327995 
	C150.651962,106.219872 143.885254,117.111748 136.851044,128.654404 
	C130.523575,141.563599 124.228096,154.488739 117.811279,167.353363 
	C117.265205,168.448166 115.909943,169.139328 114.989525,169.185745 
	C109.311920,142.494873 104.035744,115.708374 97.714195,89.170883 
	C95.796272,81.119537 92.059647,72.997879 87.272141,66.243782 
	C78.651039,54.081337 57.697731,52.694054 47.398590,62.904076 
	C62.205524,64.479744 68.107262,75.077820 72.368568,87.122368 
	C74.585335,93.388031 76.655556,99.757538 78.102539,106.234177 
	C83.290176,129.453751 88.183525,152.739059 93.106049,176.824875 
	C94.020767,182.239914 94.977226,187.648285 95.841621,193.071350 
	C97.716034,204.831009 97.703209,204.901962 109.688683,203.768341 
	C110.985466,203.645676 112.698586,202.450714 113.301628,201.280579 
	C123.963699,180.591843 134.483322,159.829697 145.586319,138.691895 
	C153.388565,127.126183 161.190826,115.560463 169.570175,103.661507 
	C176.698547,96.389229 183.826904,89.116943 191.632004,81.674278 
	C200.900162,75.707436 210.742401,72.958549 222.097992,77.116722 
	C219.555359,69.668564 215.245773,64.977097 208.451065,63.438492 
	C200.972382,61.745003 193.649109,62.753616 186.271927,67.004967 
	C174.338760,73.792900 165.587418,83.799347 157.418671,95.327995 
M490.425385,33.341217 
	C490.374786,32.888893 490.324188,32.436569 490.424561,31.132530 
	C490.254456,29.421270 490.084351,27.710011 489.899323,25.290150 
	C487.787384,20.600731 483.933044,19.030926 479.265869,20.201614 
	C474.672577,21.353779 472.665558,24.736803 472.889709,29.562838 
	C473.080383,33.667946 472.929077,37.788944 472.929077,41.889088 
	C471.704498,42.110210 471.062164,42.303459 470.412872,42.330730 
	C466.597107,42.490971 462.780670,42.658546 458.962677,42.736629 
	C452.730835,42.864071 449.029877,46.101910 449.118744,51.435715 
	C449.204407,56.578266 453.160980,59.997623 459.190918,60.061028 
	C463.604919,60.107445 468.019775,60.070122 472.833923,60.070122 
	C472.833923,62.803272 472.832947,64.768845 472.834137,66.734413 
	C472.835480,68.894707 472.774445,71.057373 472.853699,73.214844 
	C473.059296,78.810188 476.668182,82.614952 481.702057,82.624107 
	C486.732239,82.633255 490.498962,78.856384 490.775085,73.303383 
	C490.939941,69.987503 490.548828,66.620888 490.982971,63.353512 
	C491.143646,62.144066 492.949982,61.153271 494.880402,60.218880 
	C498.038239,60.355534 501.196014,60.603031 504.353912,60.604912 
	C510.261047,60.608433 513.983887,57.316170 514.070190,52.190971 
	C514.164612,46.583824 510.684387,43.028309 504.718536,42.864525 
	C500.260040,42.742119 495.795532,42.840378 491.189545,42.840378 
	C490.855621,39.556034 490.573914,36.785198 490.425385,33.341217 
z"/>
<path fill="#363167" opacity="1.000000" stroke="none" 
	d="
M93.188141,175.999512 
	C88.183525,152.739059 83.290176,129.453751 78.102539,106.234177 
	C76.655556,99.757538 74.585335,93.388031 72.368568,87.122368 
	C68.107262,75.077820 62.205524,64.479744 47.398590,62.904076 
	C57.697731,52.694054 78.651039,54.081337 87.272141,66.243782 
	C92.059647,72.997879 95.796272,81.119537 97.714195,89.170883 
	C104.035744,115.708374 109.311920,142.494873 114.591949,169.602325 
	C110.726814,171.621277 107.157249,173.046066 103.858009,174.941422 
	C102.946999,175.464767 102.862602,177.398148 102.359543,178.668991 
	C101.897079,179.837311 101.381615,180.984634 100.889503,182.141220 
	C100.373169,182.065002 99.856834,181.988785 99.340500,181.912582 
	C100.973404,175.581573 96.906563,175.996735 93.188141,175.999512 
z"/>
<path fill="#E4A43F" opacity="1.000000" stroke="none" 
	d="
M562.108215,45.979515 
	C561.937317,46.894745 561.766357,47.809975 561.456055,49.249710 
	C561.252319,50.175179 561.187866,50.576149 561.123413,50.977119 
	C560.633728,53.535164 560.144043,56.093208 559.504639,59.223263 
	C559.294800,60.186077 559.234558,60.576881 559.174316,60.967686 
	C556.504517,74.109161 553.829956,87.249657 551.168030,100.392738 
	C550.443481,103.969849 550.054260,107.651695 548.929443,111.095497 
	C548.359436,112.840912 546.336548,115.504059 545.248840,115.376617 
	C543.408447,115.160980 540.983398,113.413734 540.225586,111.686707 
	C537.831604,106.230843 536.108887,100.481438 534.103088,94.853943 
	C532.505371,90.371254 530.873352,85.900818 528.928772,80.517662 
	C527.120605,84.754364 525.974915,88.162071 524.232849,91.231339 
	C523.288025,92.895996 521.327637,93.984268 519.451904,94.926392 
	C521.762573,90.597237 519.908020,87.851562 516.725769,85.450287 
	C519.479553,78.315491 522.059143,71.104568 525.118164,64.103172 
	C525.821350,62.493866 528.257690,60.549953 529.740295,60.671043 
	C531.317200,60.799831 533.404968,62.933216 534.060608,64.652412 
	C536.904724,72.109642 539.301697,79.737152 541.879333,87.296608 
	C542.132385,88.038719 542.508850,88.738754 543.458252,90.878937 
	C545.790039,78.707016 547.873779,67.930145 549.915833,57.145390 
	C552.640991,42.753162 555.341675,28.356293 558.034241,13.957935 
	C558.611145,10.872952 559.329712,7.911826 563.312134,7.857821 
	C567.360168,7.802925 568.087097,10.881048 568.658752,13.895316 
	C573.495422,39.397511 578.289185,64.907829 583.111572,90.412735 
	C583.418579,92.036743 583.856567,93.635994 584.431824,96.093536 
	C585.889404,91.353073 587.100952,87.412689 588.972778,83.218353 
	C591.069519,82.817589 592.570251,82.349586 593.923035,82.620453 
	C595.114136,82.858948 596.139893,83.923485 597.238647,84.623230 
	C593.883667,96.007874 590.624756,107.422897 587.044739,118.736336 
	C586.626648,120.057442 584.297302,121.773636 583.100952,121.600510 
	C581.534668,121.373848 579.326111,119.681694 578.942444,118.214897 
	C577.344238,112.104179 576.327759,105.841354 575.096252,99.634659 
	C574.838989,98.338165 574.574280,97.043152 574.197144,94.950653 
	C572.024292,83.434349 569.967346,72.714836 567.910461,61.995316 
	C566.632874,55.167084 565.355286,48.338856 564.077637,41.510632 
	C563.751526,41.524837 563.425415,41.539047 563.099243,41.553253 
	C562.918701,42.273922 562.738098,42.994591 562.426025,44.238823 
	C562.232483,45.168095 562.170349,45.573803 562.108215,45.979515 
z"/>
<path fill="#2F427A" opacity="1.000000" stroke="none" 
	d="
M192.098648,157.006500 
	C187.696396,168.639099 184.024719,180.624634 178.635605,191.780518 
	C175.029648,199.245102 169.665161,206.192627 163.855988,212.175766 
	C156.702209,219.543747 146.555893,220.454330 138.648178,215.653839 
	C135.897568,213.984039 133.826553,211.194794 131.797836,208.366913 
	C142.948959,209.990433 150.563309,204.673752 157.009674,197.226639 
	C170.084946,182.121490 177.992599,164.246399 183.990692,145.429474 
	C186.300690,138.182678 188.360443,130.856125 191.157028,123.284340 
	C192.962601,123.855980 194.195343,124.648979 195.315094,125.578133 
	C196.624130,126.664337 197.834671,127.869278 199.101990,129.426331 
	C196.776886,138.888809 194.437759,147.947662 192.098648,157.006500 
z"/>
<path fill="#E4A53C" opacity="1.000000" stroke="none" 
	d="
M567.447144,96.075256 
	C567.622742,97.135918 567.798340,98.196587 568.072876,99.890884 
	C568.203430,100.910774 568.409302,101.141060 568.789673,101.215363 
	C568.789673,101.215363 568.695190,101.201248 568.678711,101.632721 
	C569.245850,104.763924 569.829529,107.463646 570.413147,110.163368 
	C571.364868,115.224236 572.460449,120.264076 573.204590,125.355286 
	C573.551270,127.727753 573.694702,130.320999 573.114807,132.607346 
	C568.826599,149.514374 564.332764,166.369263 559.400513,183.618988 
	C553.143494,182.180222 552.825317,175.975677 551.579712,172.083145 
	C549.937988,166.952423 547.559998,165.527664 543.194275,165.005585 
	C546.892090,151.381866 550.712646,137.789886 554.246216,124.123703 
	C556.773926,114.347824 558.791504,104.439476 561.361389,94.675682 
	C561.765259,93.141106 563.894836,92.060722 565.772888,91.078598 
	C566.695251,92.949669 567.071167,94.512466 567.447144,96.075256 
z"/>
<path fill="#2B457D" opacity="1.000000" stroke="none" 
	d="
M199.087952,129.022705 
	C197.834671,127.869278 196.624130,126.664337 195.315094,125.578133 
	C194.195343,124.648979 192.962601,123.855980 191.393295,123.001343 
	C192.160736,118.171883 193.307343,113.342079 194.470520,108.516266 
	C196.023911,102.071541 197.995972,95.621063 193.451889,89.180176 
	C203.095093,89.180176 212.138611,89.180176 221.655991,89.180176 
	C222.203430,93.626709 222.725327,97.865822 222.783447,102.554214 
	C221.122864,103.830078 219.069656,104.489227 218.869934,105.510757 
	C217.685349,111.569603 216.910980,117.709763 216.066818,123.831978 
	C215.997940,124.331459 216.438263,124.901154 217.093750,126.629234 
	C218.049698,122.417107 218.736221,119.392044 219.466629,116.173714 
	C223.113297,118.667366 224.940445,125.169220 222.889252,127.946930 
	C222.200760,128.879288 220.489609,129.638199 219.329498,129.535172 
	C215.302582,129.177521 215.459656,131.667404 216.628036,133.814667 
	C220.209305,140.396378 220.676193,146.899063 216.775970,153.361511 
	C214.725616,156.758865 212.165009,159.848267 209.834808,163.076721 
	C209.296448,159.975464 208.758102,156.874222 208.139420,152.957794 
	C207.407623,146.428711 206.756165,140.714828 206.483322,134.992432 
	C210.027374,134.532715 210.508148,132.871750 209.052917,129.782333 
	C207.743759,130.703461 206.732330,131.415115 205.529327,131.778595 
	C204.653870,126.754929 203.969986,122.079414 203.286118,117.403908 
	C202.959915,117.467285 202.633713,117.530655 202.307510,117.594032 
	C201.234329,121.403587 200.161133,125.213142 199.087952,129.022705 
z"/>
<path fill="#35336C" opacity="1.000000" stroke="none" 
	d="
M93.147095,176.412201 
	C96.906563,175.996735 100.973404,175.581573 99.340500,181.912582 
	C99.856834,181.988785 100.373169,182.065002 100.889503,182.141220 
	C101.381615,180.984634 101.897079,179.837311 102.359543,178.668991 
	C102.862602,177.398148 102.946999,175.464767 103.858009,174.941422 
	C107.157249,173.046066 110.726814,171.621277 114.562477,170.018463 
	C115.909943,169.139328 117.265205,168.448166 117.811279,167.353363 
	C124.228096,154.488739 130.523575,141.563599 137.429871,128.326859 
	C140.940979,127.999306 143.873291,127.999306 146.805588,127.999306 
	C147.128937,128.774841 147.452286,129.550385 147.775635,130.325928 
	C145.583313,131.451736 143.391006,132.577530 141.198700,133.703339 
	C141.710815,134.058502 142.222946,134.413681 142.735062,134.768845 
	C143.501282,136.207047 144.267502,137.645233 145.033722,139.083420 
	C134.483322,159.829697 123.963699,180.591843 113.301628,201.280579 
	C112.698586,202.450714 110.985466,203.645676 109.688683,203.768341 
	C97.703209,204.901962 97.716034,204.831009 95.841621,193.071350 
	C94.977226,187.648285 94.020767,182.239914 93.147095,176.412201 
z"/>
<path fill="#236B84" opacity="1.000000" stroke="none" 
	d="
M285.024597,174.013733 
	C285.002228,175.737411 284.979828,177.461105 284.639557,179.724625 
	C283.882324,180.510559 283.442993,180.756668 282.855286,180.702087 
	C279.267548,176.897339 275.667175,173.533783 272.445312,169.840057 
	C270.277832,167.355164 268.063080,166.642639 265.124847,167.999420 
	C265.428284,165.279526 265.731720,162.559631 266.144775,159.051941 
	C266.694977,155.483917 267.123810,152.701797 267.578094,149.923843 
	C269.366669,138.986984 271.163269,128.051453 273.010681,116.720871 
	C274.791107,110.278008 273.291656,106.035141 269.068848,105.020142 
	C270.550385,102.649117 272.233673,100.378418 273.472778,97.886826 
	C276.316223,92.169151 280.627777,89.038223 287.593994,89.887291 
	C288.322052,96.577385 289.107300,102.776405 288.793732,108.919342 
	C288.434906,115.948624 287.194733,122.942627 286.126129,129.919586 
	C285.836151,131.812897 284.723602,133.569336 284.100403,135.426132 
	C283.640228,136.797241 283.024261,138.236893 283.055756,139.632996 
	C283.297852,150.371811 283.662964,161.108093 284.060913,171.842545 
	C284.088165,172.577179 284.690002,173.290497 285.024597,174.013733 
z"/>
<path fill="#2C497F" opacity="1.000000" stroke="none" 
	d="
M209.784973,163.521698 
	C212.165009,159.848267 214.725616,156.758865 216.775970,153.361511 
	C220.676193,146.899063 220.209305,140.396378 216.628036,133.814667 
	C215.459656,131.667404 215.302582,129.177521 219.329498,129.535172 
	C220.489609,129.638199 222.200760,128.879288 222.889252,127.946930 
	C224.940445,125.169220 223.113297,118.667366 219.466629,116.173714 
	C218.736221,119.392044 218.049698,122.417107 217.093750,126.629234 
	C216.438263,124.901154 215.997940,124.331459 216.066818,123.831978 
	C216.910980,117.709763 217.685349,111.569603 218.869934,105.510757 
	C219.069656,104.489227 221.122864,103.830078 222.732361,103.002419 
	C225.066650,117.641708 227.010788,132.279175 228.898117,146.923965 
	C229.598801,152.360947 230.166168,157.815094 230.558594,163.927368 
	C230.757141,166.009796 231.191437,167.426270 231.911743,169.775650 
	C234.199280,165.893738 235.877899,163.045135 237.707123,159.940979 
	C240.934616,164.690979 239.056381,169.965790 233.795990,171.964996 
	C230.631577,173.167618 228.879852,175.032822 228.973160,178.518585 
	C229.067963,182.059601 229.037018,185.604004 229.061142,189.146912 
	C228.833801,189.763992 228.664536,190.410339 228.370392,190.993744 
	C224.080917,199.500931 224.076920,199.498917 213.795441,198.419891 
	C212.452530,187.024765 211.093826,175.495712 209.784973,163.521698 
z"/>
<path fill="#E7A33C" opacity="1.000000" stroke="none" 
	d="
M494.005798,60.062759 
	C492.949982,61.153271 491.143646,62.144066 490.982971,63.353512 
	C490.548828,66.620888 490.939941,69.987503 490.775085,73.303383 
	C490.498962,78.856384 486.732239,82.633255 481.702057,82.624107 
	C476.668182,82.614952 473.059296,78.810188 472.853699,73.214844 
	C472.774445,71.057373 472.835480,68.894707 472.834137,66.734413 
	C472.832947,64.768845 472.833923,62.803272 472.833923,60.070122 
	C468.019775,60.070122 463.604919,60.107445 459.190918,60.061028 
	C453.160980,59.997623 449.204407,56.578266 449.118744,51.435715 
	C449.029877,46.101910 452.730835,42.864071 458.962677,42.736629 
	C462.780670,42.658546 466.597107,42.490971 470.412872,42.330730 
	C471.062164,42.303459 471.704498,42.110210 472.929077,41.889088 
	C472.929077,37.788944 473.080383,33.667946 472.889709,29.562838 
	C472.665558,24.736803 474.672577,21.353779 479.265869,20.201614 
	C483.933044,19.030926 487.787384,20.600731 489.501831,25.634188 
	C485.584045,25.431740 482.063751,24.885252 477.020081,24.102283 
	C479.081268,27.606598 480.919617,29.909472 481.842133,32.534233 
	C482.746185,35.106598 483.774323,38.452663 482.844208,40.655182 
	C481.544220,43.733429 481.197449,46.606907 480.671875,49.792892 
	C479.712250,55.610176 482.452637,56.467098 486.842407,57.239410 
	C489.319122,57.675140 491.623688,59.089329 494.005798,60.062759 
z"/>
<path fill="#216C87" opacity="1.000000" stroke="none" 
	d="
M265.037048,168.417130 
	C268.063080,166.642639 270.277832,167.355164 272.445312,169.840057 
	C275.667175,173.533783 279.267548,176.897339 282.860718,181.076416 
	C283.574097,183.815308 284.133606,185.879181 284.693115,187.943054 
	C284.951172,189.915466 285.196869,191.889603 285.469391,193.860016 
	C286.714966,202.866348 290.334839,209.768097 300.911133,210.430511 
	C290.467041,221.239334 270.249207,216.807114 266.379761,202.329254 
	C263.962250,193.283829 264.902802,183.332413 264.434235,173.782761 
	C264.353912,172.145813 264.765106,170.484756 265.037048,168.417130 
z"/>
<path fill="#8F9749" opacity="1.000000" stroke="none" 
	d="
M441.002960,203.897202 
	C437.680634,203.540665 434.358307,203.184128 431.061340,202.389374 
	C431.553802,201.270981 432.429596,200.588715 432.426147,199.910934 
	C432.380737,190.994156 432.768250,182.019104 431.833801,173.187027 
	C431.379425,168.892639 431.423645,165.561340 434.293671,162.310333 
	C435.160828,161.328064 436.106018,159.596054 435.812958,158.541733 
	C433.976562,151.935074 431.800049,145.422943 429.736084,138.879532 
	C431.891785,131.375244 434.047485,123.870956 436.783356,116.309875 
	C438.959412,118.527390 440.764160,120.684891 442.113312,123.097191 
	C446.775055,131.432388 447.400024,140.096954 444.550232,149.277374 
	C443.614075,152.293137 444.270142,155.803162 444.198120,159.087173 
	C442.618896,165.008255 440.929688,170.902878 439.496460,176.859085 
	C438.419525,181.334534 438.384003,185.771866 441.770630,190.292633 
	C441.654327,195.274979 441.328644,199.586090 441.002960,203.897202 
z"/>
<path fill="#E7A53F" opacity="1.000000" stroke="none" 
	d="
M597.530334,84.436745 
	C596.139893,83.923485 595.114136,82.858948 593.923035,82.620453 
	C592.570251,82.349586 591.069519,82.817589 589.198120,82.939583 
	C590.465210,76.674843 591.952881,70.362785 594.011353,64.242729 
	C594.567261,62.589836 596.828491,60.500271 598.352417,60.462830 
	C599.927002,60.424141 602.299194,62.305607 603.028809,63.928612 
	C605.611145,69.673538 607.792664,75.615471 609.817993,81.587242 
	C610.921082,84.839592 612.434448,86.386780 616.183167,86.232666 
	C623.816711,85.918854 631.478394,85.990868 639.118347,86.229416 
	C645.148865,86.417702 650.172180,84.447914 655.025818,80.364777 
	C655.742615,80.617065 655.939453,80.909477 656.136292,81.201889 
	C651.054443,90.852211 643.201172,95.940384 632.154358,95.851608 
	C625.497192,95.798111 618.835083,95.677582 612.183350,95.869362 
	C607.347229,96.008789 604.292969,94.233154 602.947388,89.423164 
	C602.192078,86.723373 600.901611,84.173286 599.654114,81.061409 
	C598.893799,82.384811 598.357910,83.317535 597.530334,84.436745 
z"/>
<path fill="#999A48" opacity="1.000000" stroke="none" 
	d="
M444.430359,158.818573 
	C444.270142,155.803162 443.614075,152.293137 444.550232,149.277374 
	C447.400024,140.096954 446.775055,131.432388 442.113312,123.097191 
	C440.764160,120.684891 438.959412,118.527390 437.064240,116.066177 
	C437.167206,114.474236 437.569489,113.069214 438.456421,111.278824 
	C447.181519,107.098106 449.066040,101.471321 444.827942,93.562172 
	C444.063660,92.135796 443.600891,90.547859 442.998932,89.034531 
	C447.359711,88.968086 451.720490,88.901649 456.550171,89.322098 
	C457.344788,92.788429 457.670471,95.767891 457.996155,98.747345 
	C457.204010,98.938133 456.411865,99.128914 454.992310,99.470818 
	C461.152649,101.919563 461.495544,106.021751 459.783661,111.248184 
	C456.656250,120.796402 453.893372,130.464020 450.999634,140.903595 
	C450.681915,144.794403 450.342987,147.863480 450.004059,150.932541 
	C445.141663,151.310593 446.185913,155.830490 444.430359,158.818573 
z"/>
<path fill="#87954C" opacity="1.000000" stroke="none" 
	d="
M429.460022,139.120789 
	C431.800049,145.422943 433.976562,151.935074 435.812958,158.541733 
	C436.106018,159.596054 435.160828,161.328064 434.293671,162.310333 
	C431.423645,165.561340 431.379425,168.892639 431.833801,173.187027 
	C432.768250,182.019104 432.380737,190.994156 432.426147,199.910934 
	C432.429596,200.588715 431.553802,201.270981 430.703369,202.194061 
	C419.789246,199.593109 414.288910,191.816559 416.726532,181.157883 
	C419.118713,170.697922 422.831299,160.540390 425.951233,150.246124 
	C427.048920,146.624207 428.107513,142.990433 429.460022,139.120789 
z"/>
<path fill="#198279" opacity="1.000000" stroke="none" 
	d="
M330.892273,203.553024 
	C316.255646,201.561935 310.047150,192.992676 313.759308,178.746033 
	C316.503235,168.215347 320.212433,157.936157 324.003845,147.503830 
	C324.929596,151.458832 324.123779,156.197571 326.010895,159.296219 
	C329.919617,165.714233 329.755096,172.424774 330.042480,179.302948 
	C330.129578,181.387497 330.096649,183.905472 331.206940,185.434998 
	C334.041779,189.340286 333.097992,193.265839 332.301483,197.309601 
	C331.889282,199.402069 331.365601,201.472580 330.892273,203.553024 
z"/>
<path fill="#EBA83F" opacity="1.000000" stroke="none" 
	d="
M494.443115,60.140823 
	C491.623688,59.089329 489.319122,57.675140 486.842407,57.239410 
	C482.452637,56.467098 479.712250,55.610176 480.671875,49.792892 
	C481.197449,46.606907 481.544220,43.733429 482.844208,40.655182 
	C483.774323,38.452663 482.746185,35.106598 481.842133,32.534233 
	C480.919617,29.909472 479.081268,27.606598 477.020081,24.102283 
	C482.063751,24.885252 485.584045,25.431740 489.509308,25.988487 
	C490.084351,27.710011 490.254456,29.421270 490.016052,31.593321 
	C489.248047,32.482410 488.888550,32.910713 488.529053,33.339012 
	C489.116760,33.564125 489.704498,33.789242 490.292175,34.014362 
	C490.573914,36.785198 490.855621,39.556034 491.189545,42.840378 
	C495.795532,42.840378 500.260040,42.742119 504.718536,42.864525 
	C510.684387,43.028309 514.164612,46.583824 514.070190,52.190971 
	C513.983887,57.316170 510.261047,60.608433 504.353912,60.604912 
	C501.196014,60.603031 498.038239,60.355534 494.443115,60.140823 
z"/>
<path fill="#2F876B" opacity="1.000000" stroke="none" 
	d="
M348.952789,135.992920 
	C348.679810,137.112747 348.406799,138.232559 347.835602,139.825195 
	C347.865082,140.418945 348.192780,140.539871 348.520477,140.660797 
	C349.151337,140.584930 349.782166,140.509064 350.710632,140.970596 
	C351.669342,144.610107 352.330414,147.712234 352.991486,150.814346 
	C350.327515,150.906616 347.663513,150.998886 344.401917,150.832825 
	C342.536072,146.765930 341.122375,142.998520 340.030334,139.140091 
	C337.844269,131.416107 335.834229,123.642311 333.751495,115.889091 
	C334.716278,112.165222 335.681061,108.441353 337.094513,104.087334 
	C337.357391,98.669937 337.171600,93.882690 336.985840,89.095444 
	C339.693939,88.972984 342.402069,88.850525 345.558411,89.249451 
	C346.337952,95.202034 346.816315,100.629784 346.943604,106.065758 
	C347.016022,109.159805 346.402008,112.263618 346.300964,115.369667 
	C346.179199,119.112076 346.460419,122.873512 346.220581,126.604439 
	C345.993317,130.140167 345.444519,133.610977 348.952789,135.992920 
z"/>
<path fill="#E0A03B" opacity="1.000000" stroke="none" 
	d="
M543.025391,165.352325 
	C547.559998,165.527664 549.937988,166.952423 551.579712,172.083145 
	C552.825317,175.975677 553.143494,182.180222 559.265991,183.998322 
	C559.259766,190.407593 558.885010,196.815979 558.498657,203.422394 
	C547.432251,206.685394 536.740173,197.410339 538.441406,184.924728 
	C539.325562,178.436111 541.348206,172.102615 543.025391,165.352325 
z"/>
<path fill="#2E427B" opacity="1.000000" stroke="none" 
	d="
M190.955276,81.844666 
	C183.826904,89.116943 176.698547,96.389229 168.878357,103.829315 
	C166.845627,103.296394 164.359955,102.597755 164.358673,101.894600 
	C164.352600,98.553070 162.204483,97.848145 159.780060,96.981636 
	C159.037064,96.716080 158.575958,95.661819 157.985764,94.968742 
	C165.587418,83.799347 174.338760,73.792900 186.665558,67.324219 
	C188.357880,72.377205 189.656586,77.110931 190.955276,81.844666 
z"/>
<path fill="#277481" opacity="1.000000" stroke="none" 
	d="
M285.181641,173.645554 
	C284.690002,173.290497 284.088165,172.577179 284.060913,171.842545 
	C283.662964,161.108093 283.297852,150.371811 283.055756,139.632996 
	C283.024261,138.236893 283.640228,136.797241 284.100403,135.426132 
	C284.723602,133.569336 285.836151,131.812897 286.126129,129.919586 
	C287.194733,122.942627 288.434906,115.948624 288.793732,108.919342 
	C289.107300,102.776405 288.322052,96.577385 288.039398,89.936493 
	C292.352722,89.270927 296.648865,89.072006 301.550629,88.845039 
	C293.955231,116.926903 288.176208,144.828827 285.181641,173.645554 
z"/>
<path fill="#323A71" opacity="1.000000" stroke="none" 
	d="
M157.702209,95.148369 
	C158.575958,95.661819 159.037064,96.716080 159.780060,96.981636 
	C162.204483,97.848145 164.352600,98.553070 164.358673,101.894600 
	C164.359955,102.597755 166.845627,103.296394 168.589813,103.995934 
	C161.190826,115.560463 153.388565,127.126183 145.310028,138.887665 
	C144.267502,137.645233 143.501282,136.207047 142.735062,134.768845 
	C142.222946,134.413681 141.710815,134.058502 141.198700,133.703339 
	C143.391006,132.577530 145.583313,131.451736 147.775635,130.325928 
	C147.452286,129.550385 147.128937,128.774841 146.805588,127.999306 
	C143.873291,127.999306 140.940979,127.999306 137.563614,128.001465 
	C143.885254,117.111748 150.651962,106.219872 157.702209,95.148369 
z"/>
<path fill="#2C5383" opacity="1.000000" stroke="none" 
	d="
M229.339706,188.946960 
	C229.037018,185.604004 229.067963,182.059601 228.973160,178.518585 
	C228.879852,175.032822 230.631577,173.167618 233.795990,171.964996 
	C239.056381,169.965790 240.934616,164.690979 237.707123,159.940979 
	C235.877899,163.045135 234.199280,165.893738 231.911743,169.775650 
	C231.191437,167.426270 230.757141,166.009796 230.518341,164.354095 
	C231.723267,163.041428 232.945786,162.100479 233.708542,160.873657 
	C240.002609,150.750381 246.211472,140.574097 253.115021,130.208008 
	C256.512482,130.996368 259.241089,131.990555 261.887787,133.321625 
	C259.163422,138.089020 256.520935,142.519562 253.878448,146.950104 
	C245.791718,160.882385 237.704987,174.814682 229.339706,188.946960 
z"/>
<path fill="#208475" opacity="1.000000" stroke="none" 
	d="
M331.245239,203.689987 
	C331.365601,201.472580 331.889282,199.402069 332.301483,197.309601 
	C333.097992,193.265839 334.041779,189.340286 331.206940,185.434998 
	C330.096649,183.905472 330.129578,181.387497 330.042480,179.302948 
	C329.755096,172.424774 329.919617,165.714233 326.010895,159.296219 
	C324.123779,156.197571 324.929596,151.458832 324.229370,147.219025 
	C325.675598,141.097076 327.408508,135.218857 329.731018,129.310486 
	C330.371582,130.210938 330.673218,131.212509 330.433044,132.060669 
	C328.782867,137.888000 330.236969,142.819000 333.848572,147.615906 
	C335.291504,149.532364 335.418701,152.489182 335.978973,155.009293 
	C336.933258,159.301651 337.756500,163.623154 338.634766,167.932404 
	C337.749573,171.575455 336.663696,175.184067 336.031036,178.870468 
	C335.277496,183.261383 335.337982,187.597824 339.623718,191.317383 
	C338.922607,195.921341 337.960083,199.935043 336.997528,203.948746 
	C335.197754,203.908142 333.398010,203.867554 331.245239,203.689987 
z"/>
<path fill="#324A80" opacity="1.000000" stroke="none" 
	d="
M191.293640,81.759476 
	C189.656586,77.110931 188.357880,72.377205 187.016464,67.273941 
	C193.649109,62.753616 200.972382,61.745003 208.451065,63.438492 
	C215.245773,64.977097 219.555359,69.668564 222.097992,77.116722 
	C210.742401,72.958549 200.900162,75.707436 191.293640,81.759476 
z"/>
<path fill="#3C8B6A" opacity="1.000000" stroke="none" 
	d="
M349.166626,135.697235 
	C345.444519,133.610977 345.993317,130.140167 346.220581,126.604439 
	C346.460419,122.873512 346.179199,119.112076 346.300964,115.369667 
	C346.402008,112.263618 347.016022,109.159805 346.943604,106.065758 
	C346.816315,100.629784 346.337952,95.202034 346.003326,89.334839 
	C349.034576,88.817932 352.069122,88.737007 355.551270,89.206299 
	C355.997284,92.721741 355.995697,95.686958 355.994110,98.652184 
	C355.365570,98.825806 354.737030,98.999420 353.129883,99.443359 
	C359.604919,102.893295 357.906677,107.698654 356.411377,112.506584 
	C354.040558,120.129791 351.721436,127.769081 349.166626,135.697235 
z"/>
<path fill="#DFA344" opacity="1.000000" stroke="none" 
	d="
M516.314575,85.650215 
	C519.908020,87.851562 521.762573,90.597237 519.068787,94.896317 
	C508.119293,95.467567 497.176422,95.839355 486.243286,95.650200 
	C484.758026,95.624512 482.457520,92.944191 482.148743,91.206215 
	C481.921509,89.927376 484.057617,87.334885 485.623077,86.833054 
	C488.209656,86.003876 491.184357,86.337334 493.997620,86.272774 
	C501.298889,86.105202 508.601349,85.987663 516.314575,85.650215 
z"/>
<path fill="#F4F5F3" opacity="1.000000" stroke="none" 
	d="
M206.104706,135.000931 
	C206.756165,140.714828 207.407623,146.428711 208.004822,152.573151 
	C204.261002,155.283142 200.571472,157.562607 196.784653,159.902176 
	C195.473892,158.949692 194.150085,157.987717 192.462463,157.016129 
	C194.437759,147.947662 196.776886,138.888809 199.101990,129.426331 
	C200.161133,125.213142 201.234329,121.403587 202.307510,117.594032 
	C202.633713,117.530655 202.959915,117.467285 203.286118,117.403908 
	C203.969986,122.079414 204.653870,126.754929 205.484863,132.143829 
	C205.789551,133.571808 205.947128,134.286362 206.104706,135.000931 
z"/>
<path fill="#278770" opacity="1.000000" stroke="none" 
	d="
M338.798187,167.585510 
	C337.756500,163.623154 336.933258,159.301651 335.978973,155.009293 
	C335.418701,152.489182 335.291504,149.532364 333.848572,147.615906 
	C330.236969,142.819000 328.782867,137.888000 330.433044,132.060669 
	C330.673218,131.212509 330.371582,130.210938 330.010681,129.067474 
	C330.857422,124.683708 332.014099,120.512825 333.461121,116.115509 
	C335.834229,123.642311 337.844269,131.416107 340.030334,139.140091 
	C341.122375,142.998520 342.536072,146.765930 343.965393,150.909515 
	C342.404846,156.575882 340.683228,161.907257 338.798187,167.585510 
z"/>
<path fill="#8F984C" opacity="1.000000" stroke="none" 
	d="
M442.568512,88.969582 
	C443.600891,90.547859 444.063660,92.135796 444.827942,93.562172 
	C449.066040,101.471321 447.181519,107.098106 438.603760,110.943146 
	C438.486298,109.861168 438.733154,108.733986 438.921692,107.597145 
	C440.013947,101.011078 437.601868,98.757904 430.857788,100.239380 
	C428.937164,100.661293 427.041595,101.386856 425.272247,102.254120 
	C423.519958,103.113007 421.941467,104.326447 420.237946,105.415565 
	C420.018311,96.471039 429.346649,89.487846 442.568512,88.969582 
z"/>
<path fill="#F0F4F2" opacity="1.000000" stroke="none" 
	d="
M254.291901,146.974289 
	C256.520935,142.519562 259.163422,138.089020 262.163269,133.124619 
	C265.999390,127.432304 269.478119,122.273872 272.956848,117.115433 
	C271.163269,128.051453 269.366669,138.986984 267.578094,149.923843 
	C267.123810,152.701797 266.694977,155.483917 266.102722,158.633881 
	C264.288727,155.608200 262.626343,152.212769 260.712219,148.303162 
	C259.191711,147.972900 256.948517,147.485687 254.291901,146.974289 
z"/>
<path fill="#669163" opacity="1.000000" stroke="none" 
	d="
M373.990417,192.070831 
	C382.550903,189.968765 390.751404,187.138824 396.897125,179.744400 
	C399.095490,188.057220 396.844147,194.712357 390.256775,198.394440 
	C386.430939,200.532974 381.961945,201.520828 377.381287,202.606140 
	C375.983643,198.814148 374.987030,195.442490 373.990417,192.070831 
z"/>
<path fill="#286287" opacity="1.000000" stroke="none" 
	d="
M273.010681,116.720871 
	C269.478119,122.273872 265.999390,127.432304 262.245148,132.787750 
	C259.241089,131.990555 256.512482,130.996368 253.384521,130.004272 
	C258.168091,121.816696 263.351013,113.627022 268.801392,105.228745 
	C273.291656,106.035141 274.791107,110.278008 273.010681,116.720871 
z"/>
<path fill="#F8F7F2" opacity="1.000000" stroke="none" 
	d="
M567.882507,96.060486 
	C567.071167,94.512466 566.695251,92.949669 566.179626,91.058022 
	C565.027161,82.695267 563.976746,74.665833 563.021362,66.625107 
	C562.672424,63.688370 563.711914,61.754364 567.504089,61.998360 
	C569.967346,72.714836 572.024292,83.434349 574.049255,94.576233 
	C572.117493,95.347641 570.217712,95.696678 567.882507,96.060486 
z"/>
<path fill="#B49C43" opacity="1.000000" stroke="none" 
	d="
M470.001709,140.958450 
	C476.196167,140.564087 482.390564,140.169708 488.479034,139.782089 
	C488.639343,140.653961 488.714752,140.822739 488.692444,140.977432 
	C487.104095,151.998154 487.103210,152.006958 476.201141,151.630478 
	C474.060974,151.556564 471.924225,151.384644 469.387329,150.749176 
	C469.326416,147.146408 469.664062,144.052429 470.001709,140.958450 
z"/>
<path fill="#7C9A6B" opacity="1.000000" stroke="none" 
	d="
M392.954193,88.666489 
	C398.403748,88.666489 403.853302,88.666489 410.048309,88.666489 
	C408.972473,93.049965 407.966156,97.150215 406.867859,101.625305 
	C401.941193,101.141808 397.342285,100.690475 392.391022,99.669708 
	C392.343811,95.622353 392.649017,92.144417 392.954193,88.666489 
z"/>
<path fill="#248675" opacity="1.000000" stroke="none" 
	d="
M336.581787,89.047325 
	C337.171600,93.882690 337.357391,98.669937 337.245300,103.735947 
	C336.403595,100.713921 334.056458,99.288734 331.199982,99.953728 
	C326.198334,101.118126 321.346191,102.924988 316.896515,104.317177 
	C317.976135,96.407120 324.897369,90.523109 336.581787,89.047325 
z"/>
<path fill="#CBA040" opacity="1.000000" stroke="none" 
	d="
M484.992371,189.979309 
	C489.966492,187.180679 494.940613,184.382034 499.843262,181.623611 
	C502.637787,190.218246 498.795898,196.565140 487.363770,200.488495 
	C486.331238,196.715591 485.661804,193.347458 484.992371,189.979309 
z"/>
<path fill="#608E62" opacity="1.000000" stroke="none" 
	d="
M392.504517,88.550705 
	C392.649017,92.144417 392.343811,95.622353 392.027985,99.506882 
	C387.627899,99.644600 383.238495,99.375717 378.421997,98.593086 
	C378.326843,94.961540 378.658722,91.843750 378.990601,88.725967 
	C383.345367,88.628952 387.700073,88.531944 392.504517,88.550705 
z"/>
<path fill="#65946E" opacity="1.000000" stroke="none" 
	d="
M372.061157,140.520111 
	C376.596741,140.153442 381.132324,139.786774 386.484528,139.354080 
	C385.509949,143.401505 384.841858,146.896179 383.732910,150.244888 
	C383.475067,151.023376 381.717773,151.730042 380.647980,151.733597 
	C377.694824,151.743332 374.740356,151.363586 371.450043,150.632568 
	C371.429504,146.924896 371.745300,143.722504 372.061157,140.520111 
z"/>
<path fill="#588F6B" opacity="1.000000" stroke="none" 
	d="
M373.568054,192.042603 
	C374.987030,195.442490 375.983643,198.814148 376.982117,202.568817 
	C372.293640,203.353409 367.603241,203.754974 362.457092,203.669922 
	C362.012665,199.927872 362.023956,196.672455 362.035248,193.417038 
	C365.738708,192.949478 369.442200,192.481934 373.568054,192.042603 
z"/>
<path fill="#A79742" opacity="1.000000" stroke="none" 
	d="
M452.999786,194.011505 
	C456.687653,193.757660 460.375519,193.503815 464.522339,193.717712 
	C465.320099,197.433792 465.658905,200.682144 465.997742,203.930511 
	C461.637726,204.006485 457.277679,204.082443 452.468689,203.660995 
	C452.346405,200.112885 452.673096,197.062195 452.999786,194.011505 
z"/>
<path fill="#2A836F" opacity="1.000000" stroke="none" 
	d="
M337.451843,204.049286 
	C337.960083,199.935043 338.922607,195.921341 339.936462,191.533936 
	C343.123383,191.929276 346.258972,192.698288 349.714600,194.092743 
	C350.023071,197.813095 350.011566,200.908020 350.000061,204.002930 
	C345.968750,204.051880 341.937439,204.100845 337.451843,204.049286 
z"/>
<path fill="#A89A44" opacity="1.000000" stroke="none" 
	d="
M458.448303,98.826614 
	C457.670471,95.767891 457.344788,92.788429 457.009552,89.400085 
	C461.796875,88.991203 466.593719,88.991203 471.299530,88.991203 
	C471.485077,89.589958 471.711670,89.921562 471.653900,90.192551 
	C469.775238,99.007141 469.771118,99.006264 458.448303,98.826614 
z"/>
<path fill="#999445" opacity="1.000000" stroke="none" 
	d="
M452.604523,194.002472 
	C452.673096,197.062195 452.346405,200.112885 452.010681,203.574585 
	C448.635773,204.015945 445.269958,204.046326 441.453552,203.986938 
	C441.328644,199.586090 441.654327,195.274979 441.986328,190.598755 
	C445.398193,191.486908 448.803711,192.740189 452.604523,194.002472 
z"/>
<path fill="#448863" opacity="1.000000" stroke="none" 
	d="
M356.447235,98.745285 
	C355.995697,95.686958 355.997284,92.721741 355.997803,89.299271 
	C360.055206,88.717941 364.113647,88.593857 368.579865,88.973885 
	C368.654572,92.554459 368.321442,95.630913 367.988312,98.707367 
	C364.292328,98.751038 360.596344,98.794716 356.447235,98.745285 
z"/>
<path fill="#C19F44" opacity="1.000000" stroke="none" 
	d="
M484.595306,189.984222 
	C485.661804,193.347458 486.331238,196.715591 487.001587,200.498169 
	C483.959442,201.665634 480.916351,202.418655 477.305573,202.783661 
	C476.159271,198.999771 475.580658,195.603882 475.002045,192.208008 
	C478.067444,191.468369 481.132843,190.728745 484.595306,189.984222 
z"/>
<path fill="#3B876A" opacity="1.000000" stroke="none" 
	d="
M350.452179,204.100723 
	C350.011566,200.908020 350.023071,197.813095 350.055847,194.249084 
	C353.757568,193.625458 357.438049,193.470932 361.576874,193.366730 
	C362.023956,196.672455 362.012665,199.927872 361.999146,203.581039 
	C358.299408,204.052032 354.601837,204.125275 350.452179,204.100723 
z"/>
<path fill="#B79E4A" opacity="1.000000" stroke="none" 
	d="
M474.584290,192.173828 
	C475.580658,195.603882 476.159271,198.999771 476.892883,202.756348 
	C473.661804,203.436127 470.275787,203.755219 466.443726,204.002411 
	C465.658905,200.682144 465.320099,197.433792 464.969666,193.788116 
	C468.027557,192.973755 471.097076,192.556702 474.584290,192.173828 
z"/>
<path fill="#50885E" opacity="1.000000" stroke="none" 
	d="
M368.434631,98.801758 
	C368.321442,95.630913 368.654572,92.554459 368.973175,89.107277 
	C372.010162,88.645012 375.061646,88.553482 378.551880,88.593956 
	C378.658722,91.843750 378.326843,94.961540 377.992371,98.490631 
	C374.953522,98.900002 371.917206,98.898071 368.434631,98.801758 
z"/>
<path fill="#4C8B67" opacity="1.000000" stroke="none" 
	d="
M371.600281,140.453461 
	C371.745300,143.722504 371.429504,146.924896 371.049835,150.531525 
	C368.280701,150.970276 365.575439,151.004776 362.430450,150.545227 
	C361.334442,146.936310 360.678131,143.821411 360.021851,140.706482 
	C363.727722,140.599930 367.433563,140.493378 371.600281,140.453461 
z"/>
<path fill="#9B9743" opacity="1.000000" stroke="none" 
	d="
M450.456177,151.012146 
	C450.342987,147.863480 450.681915,144.794403 451.035767,141.287506 
	C453.739014,140.839767 456.427368,140.829880 459.559418,141.322052 
	C460.336060,144.873016 460.668945,147.921936 461.001862,150.970856 
	C457.637360,151.011154 454.272827,151.051453 450.456177,151.012146 
z"/>
<path fill="#3A8766" opacity="1.000000" stroke="none" 
	d="
M359.672058,140.580750 
	C360.678131,143.821411 361.334442,146.936310 361.987854,150.452988 
	C359.282257,150.902420 356.579590,150.950073 353.434204,150.906036 
	C352.330414,147.712234 351.669342,144.610107 351.014221,141.071213 
	C353.787567,140.574631 356.554901,140.514816 359.672058,140.580750 
z"/>
<path fill="#A79742" opacity="1.000000" stroke="none" 
	d="
M461.439728,151.055054 
	C460.668945,147.921936 460.336060,144.873016 460.001465,141.405670 
	C463.034119,140.928116 466.068420,140.869003 469.552216,140.884171 
	C469.664062,144.052429 469.326416,147.146408 468.996979,150.624390 
	C466.629333,151.052017 464.253448,151.095642 461.439728,151.055054 
z"/>
<path fill="#F8F7F2" opacity="1.000000" stroke="none" 
	d="
M570.818970,110.006348 
	C569.829529,107.463646 569.245850,104.763924 568.669800,101.679642 
	C569.921692,100.986893 571.165955,100.678696 573.815796,100.022354 
	C572.794983,103.893898 572.009827,106.871613 570.818970,110.006348 
z"/>
<path fill="#277481" opacity="1.000000" stroke="none" 
	d="
M284.774292,187.510101 
	C284.133606,185.879181 283.574097,183.815308 283.009125,181.377106 
	C283.442993,180.756668 283.882324,180.510559 284.545349,180.146088 
	C284.797821,182.377533 284.826660,184.727325 284.774292,187.510101 
z"/>
<path fill="#E7A33C" opacity="1.000000" stroke="none" 
	d="
M490.358795,33.677788 
	C489.704498,33.789242 489.116760,33.564125 488.529053,33.339012 
	C488.888550,32.910713 489.248047,32.482410 489.940552,32.019176 
	C490.324188,32.436569 490.374786,32.888893 490.358795,33.677788 
z"/>
<path fill="#ECB457" opacity="1.000000" stroke="none" 
	d="
M656.371704,80.992828 
	C655.939453,80.909477 655.742615,80.617065 655.317017,80.189911 
	C655.575867,79.757286 656.063477,79.459404 656.551086,79.161514 
	C656.569763,79.702263 656.588440,80.243019 656.371704,80.992828 
z"/>
<path fill="#F8F7F2" opacity="1.000000" stroke="none" 
	d="
M561.343384,50.770416 
	C561.187866,50.576149 561.252319,50.175179 561.564697,49.584568 
	C561.729553,49.784523 561.646423,50.174118 561.343384,50.770416 
z"/>
<path fill="#F8F7F2" opacity="1.000000" stroke="none" 
	d="
M562.330322,45.771919 
	C562.170349,45.573803 562.232483,45.168095 562.547546,44.575111 
	C562.717773,44.779999 562.635132,45.172157 562.330322,45.771919 
z"/>
<path fill="#F8F7F2" opacity="1.000000" stroke="none" 
	d="
M559.384888,60.761997 
	C559.234558,60.576881 559.294800,60.186077 559.591675,59.603512 
	C559.750793,59.793274 559.673157,60.174793 559.384888,60.761997 
z"/>
<path fill="#65946E" opacity="1.000000" stroke="none" 
	d="
M348.400513,140.460754 
	C348.192780,140.539871 347.865082,140.418945 347.712830,140.153168 
	C347.888275,140.008331 348.280579,140.260727 348.400513,140.460754 
z"/>
<path fill="#F8F7F2" opacity="1.000000" stroke="none" 
	d="
M568.790588,100.978500 
	C568.409302,101.141060 568.203430,100.910774 568.188538,100.277374 
	C568.502258,100.183517 568.697754,100.420654 568.790588,100.978500 
z"/>
<path fill="#2C497F" opacity="1.000000" stroke="none" 
	d="
M206.483307,134.992432 
	C205.947128,134.286362 205.789551,133.571808 205.676437,132.492004 
	C206.732330,131.415115 207.743759,130.703461 209.052917,129.782333 
	C210.508148,132.871750 210.027374,134.532715 206.483307,134.992432 
z"/>
</svg>